<svg width="24" height="24" viewBox="0 0 24 24" fill="none" xmlns="http://www.w3.org/2000/svg">
                    <path d="M4 11.75C3.80109 11.75 3.61032 11.671 3.46967 11.5303C3.32902 11.3897 3.25 11.1989 3.25 11V3C3.25 2.80109 3.32902 2.61032 3.46967 2.46967C3.61032 2.32902 3.80109 2.25 4 2.25C4.19891 2.25 4.38968 2.32902 4.53033 2.46967C4.67098 2.61032 4.75 2.80109 4.75 3V11C4.75 11.1989 4.67098 11.3897 4.53033 11.5303C4.38968 11.671 4.19891 11.75 4 11.75Z" fill="#112BB1"></path>
                    <path d="M20 11.75C19.8011 11.75 19.6103 11.671 19.4697 11.5303C19.329 11.3897 19.25 11.1989 19.25 11V3C19.25 2.80109 19.329 2.61032 19.4697 2.46967C19.6103 2.32902 19.8011 2.25 20 2.25C20.1989 2.25 20.3897 2.32902 20.5303 2.46967C20.671 2.61032 20.75 2.80109 20.75 3V11C20.75 11.1989 20.671 11.3897 20.5303 11.5303C20.3897 11.671 20.1989 11.75 20 11.75Z" fill="#112BB1"></path>
                    <path d="M9 11.75C8.80109 11.75 8.61032 11.671 8.46967 11.5303C8.32902 11.3897 8.25 11.1989 8.25 11V1C8.25 0.801088 8.32902 0.610322 8.46967 0.46967C8.61032 0.329018 8.80109 0.25 9 0.25C9.19891 0.25 9.38968 0.329018 9.53033 0.46967C9.67098 0.610322 9.75 0.801088 9.75 1V11C9.75 11.1989 9.67098 11.3897 9.53033 11.5303C9.38968 11.671 9.19891 11.75 9 11.75Z" fill="#112BB1"></path>
                    <path d="M15 11.75C14.8011 11.75 14.6103 11.671 14.4697 11.5303C14.329 11.3897 14.25 11.1989 14.25 11V1C14.25 0.801088 14.329 0.610322 14.4697 0.46967C14.6103 0.329018 14.8011 0.25 15 0.25C15.1989 0.25 15.3897 0.329018 15.5303 0.46967C15.671 0.610322 15.75 0.801088 15.75 1V11C15.75 11.1989 15.671 11.3897 15.5303 11.5303C15.3897 11.671 15.1989 11.75 15 11.75Z" fill="#112BB1"></path>
                    <path d="M20 21.75H19C18.8011 21.75 18.6103 21.671 18.4697 21.5303C18.329 21.3897 18.25 21.1989 18.25 21C18.25 20.8011 18.329 20.6103 18.4697 20.4697C18.6103 20.329 18.8011 20.25 19 20.25H20C20.5965 20.2492 21.1683 20.0119 21.5901 19.5901C22.0119 19.1683 22.2492 18.5965 22.25 18V14C22.2492 13.4035 22.0119 12.8317 21.5901 12.4099C21.1683 11.9881 20.5965 11.7508 20 11.75H4C3.40351 11.7508 2.83167 11.9881 2.40989 12.4099C1.9881 12.8317 1.75079 13.4035 1.75 14V18C1.75079 18.5965 1.9881 19.1683 2.40989 19.5901C2.83167 20.0119 3.40351 20.2492 4 20.25H16C16.1989 20.25 16.3897 20.329 16.5303 20.4697C16.671 20.6103 16.75 20.8011 16.75 21C16.75 21.1989 16.671 21.3897 16.5303 21.5303C16.3897 21.671 16.1989 21.75 16 21.75H4C3.00584 21.7487 2.05279 21.3532 1.34981 20.6502C0.646836 19.9472 0.251323 18.9942 0.25 18V14C0.251323 13.0058 0.646836 12.0528 1.34981 11.3498C2.05279 10.6468 3.00584 10.2513 4 10.25H20C20.9942 10.2513 21.9472 10.6468 22.6502 11.3498C23.3532 12.0528 23.7487 13.0058 23.75 14V18C23.7487 18.9942 23.3532 19.9472 22.6502 20.6502C21.9472 21.3532 20.9942 21.7487 20 21.75Z" fill="#112BB1"></path>
                    <path d="M5 17C5.55228 17 6 16.5523 6 16C6 15.4477 5.55228 15 5 15C4.44772 15 4 15.4477 4 16C4 16.5523 4.44772 17 5 17Z" fill="#112BB1"></path>
                    <path d="M8 17C8.55228 17 9 16.5523 9 16C9 15.4477 8.55228 15 8 15C7.44772 15 7 15.4477 7 16C7 16.5523 7.44772 17 8 17Z" fill="#112BB1"></path>
                    <path d="M11 17C11.5523 17 12 16.5523 12 16C12 15.4477 11.5523 15 11 15C10.4477 15 10 15.4477 10 16C10 16.5523 10.4477 17 11 17Z" fill="#112BB1"></path>
                    <path d="M20 16.75H17C16.8011 16.75 16.6103 16.671 16.4697 16.5303C16.329 16.3897 16.25 16.1989 16.25 16C16.25 15.8011 16.329 15.6103 16.4697 15.4697C16.6103 15.329 16.8011 15.25 17 15.25H20C20.1989 15.25 20.3897 15.329 20.5303 15.4697C20.671 15.6103 20.75 15.8011 20.75 16C20.75 16.1989 20.671 16.3897 20.5303 16.5303C20.3897 16.671 20.1989 16.75 20 16.75Z" fill="#112BB1"></path>
                    <path d="M5 23.75C4.80109 23.75 4.61032 23.671 4.46967 23.5303C4.32902 23.3897 4.25 23.1989 4.25 23V21C4.25 20.8011 4.32902 20.6103 4.46967 20.4697C4.61032 20.329 4.80109 20.25 5 20.25C5.19891 20.25 5.38968 20.329 5.53033 20.4697C5.67098 20.6103 5.75 20.8011 5.75 21V23C5.75 23.1989 5.67098 23.3897 5.53033 23.5303C5.38968 23.671 5.19891 23.75 5 23.75Z" fill="#112BB1"></path>
                    <path d="M19 23.75C18.8011 23.75 18.6103 23.671 18.4697 23.5303C18.329 23.3897 18.25 23.1989 18.25 23V21C18.25 20.8011 18.329 20.6103 18.4697 20.4697C18.6103 20.329 18.8011 20.25 19 20.25C19.1989 20.25 19.3897 20.329 19.5303 20.4697C19.671 20.6103 19.75 20.8011 19.75 21V23C19.75 23.1989 19.671 23.3897 19.5303 23.5303C19.3897 23.671 19.1989 23.75 19 23.75Z" fill="#112BB1"></path>
                  </svg>