<svg width="24" height="24" viewBox="0 0 24 24" fill="none" xmlns="http://www.w3.org/2000/svg">
                    <path d="M12 19.75C10.0716 19.75 8.18657 19.1782 6.58319 18.1068C4.97982 17.0355 3.73013 15.5127 2.99218 13.7312C2.25422 11.9496 2.06114 9.98919 2.43735 8.09787C2.81355 6.20656 3.74215 4.46927 5.10571 3.10571C6.46928 1.74215 8.20656 0.813554 10.0979 0.437348C11.9892 0.061142 13.9496 0.254225 15.7312 0.992179C17.5127 1.73013 19.0355 2.97982 20.1068 4.58319C21.1782 6.18657 21.75 8.07164 21.75 10C21.7471 12.585 20.7189 15.0632 18.8911 16.8911C17.0632 18.7189 14.585 19.7471 12 19.75ZM12 1.75C10.3683 1.75 8.77326 2.23386 7.41655 3.14038C6.05984 4.0469 5.00242 5.33538 4.378 6.84287C3.75358 8.35036 3.5902 10.0092 3.90853 11.6095C4.22685 13.2098 5.01259 14.6799 6.16637 15.8336C7.32016 16.9874 8.79017 17.7732 10.3905 18.0915C11.9909 18.4098 13.6497 18.2464 15.1571 17.622C16.6646 16.9976 17.9531 15.9402 18.8596 14.5835C19.7661 13.2268 20.25 11.6317 20.25 10C20.2476 7.8127 19.3777 5.71566 17.831 4.169C16.2843 2.62235 14.1873 1.75239 12 1.75Z" fill="#112BB1"></path>
                    <path d="M12 16.75C11.0605 16.75 10.1422 16.4714 9.36104 15.9495C8.57991 15.4275 7.97109 14.6857 7.61157 13.8177C7.25206 12.9498 7.15799 11.9947 7.34127 11.0733C7.52455 10.1519 7.97695 9.30554 8.64125 8.64125C9.30554 7.97695 10.1519 7.52455 11.0733 7.34127C11.9947 7.15799 12.9498 7.25206 13.8177 7.61157C14.6857 7.97109 15.4275 8.57991 15.9495 9.36104C16.4714 10.1422 16.75 11.0605 16.75 12C16.7484 13.2593 16.2475 14.4666 15.357 15.357C14.4666 16.2475 13.2593 16.7484 12 16.75ZM12 8.75C11.3572 8.75 10.7289 8.94061 10.1944 9.29773C9.65994 9.65484 9.24338 10.1624 8.99739 10.7563C8.75141 11.3501 8.68705 12.0036 8.81245 12.634C8.93785 13.2645 9.24739 13.8436 9.70191 14.2981C10.1564 14.7526 10.7355 15.0622 11.366 15.1876C11.9964 15.313 12.6499 15.2486 13.2437 15.0026C13.8376 14.7566 14.3452 14.3401 14.7023 13.8056C15.0594 13.2711 15.25 12.6428 15.25 12C15.2489 11.1384 14.9062 10.3123 14.2969 9.70307C13.6877 9.09381 12.8616 8.75106 12 8.75Z" fill="#112BB1"></path>
                    <path d="M12 13C12.5523 13 13 12.5523 13 12C13 11.4477 12.5523 11 12 11C11.4477 11 11 11.4477 11 12C11 12.5523 11.4477 13 12 13Z" fill="#112BB1"></path>
                    <path d="M20 23.75H4C3.80109 23.75 3.61032 23.671 3.46967 23.5303C3.32902 23.3897 3.25 23.1989 3.25 23C3.25 22.8011 3.32902 22.6103 3.46967 22.4697C3.61032 22.329 3.80109 22.25 4 22.25H20C20.1989 22.25 20.3897 22.329 20.5303 22.4697C20.671 22.6103 20.75 22.8011 20.75 23C20.75 23.1989 20.671 23.3897 20.5303 23.5303C20.3897 23.671 20.1989 23.75 20 23.75Z" fill="#112BB1"></path>
                    <path d="M17.9997 23.7496H5.99968C5.89222 23.7497 5.786 23.7266 5.68823 23.6821C5.59045 23.6375 5.50342 23.5724 5.43303 23.4912C5.36265 23.41 5.31056 23.3146 5.2803 23.2115C5.25005 23.1084 5.24233 22.9999 5.25768 22.8936L6.06668 17.2336C6.09466 17.0365 6.19978 16.8587 6.3589 16.7391C6.51803 16.6195 6.71813 16.5681 6.91518 16.5961C7.11224 16.6241 7.29011 16.7292 7.40966 16.8883C7.52922 17.0474 7.58066 17.2475 7.55268 17.4446L6.86468 22.2496H17.1347L16.7577 19.6256C16.737 19.4323 16.7921 19.2386 16.9115 19.0853C17.0308 18.9319 17.205 18.8308 17.3974 18.8033C17.5897 18.7758 17.7853 18.8241 17.9428 18.9379C18.1003 19.0518 18.2074 19.2223 18.2417 19.4136L18.7417 22.8936C18.7567 22.9999 18.7487 23.1082 18.7184 23.2111C18.688 23.3141 18.6359 23.4094 18.5655 23.4905C18.4952 23.5716 18.4083 23.6367 18.3107 23.6814C18.2131 23.7261 18.107 23.7493 17.9997 23.7496Z" fill="#112BB1"></path>
                    <path d="M13 5.75H11C10.8011 5.75 10.6103 5.67098 10.4697 5.53033C10.329 5.38968 10.25 5.19891 10.25 5C10.25 4.80109 10.329 4.61032 10.4697 4.46967C10.6103 4.32902 10.8011 4.25 11 4.25H13C13.1989 4.25 13.3897 4.32902 13.5303 4.46967C13.671 4.61032 13.75 4.80109 13.75 5C13.75 5.19891 13.671 5.38968 13.5303 5.53033C13.3897 5.67098 13.1989 5.75 13 5.75Z" fill="#112BB1"></path>
                  </svg>