<svg width="24" height="24" viewBox="0 0 24 24" fill="none" xmlns="http://www.w3.org/2000/svg">
                    <path d="M20 19.75H4C3.00576 19.7489 2.05255 19.3535 1.34952 18.6505C0.646487 17.9474 0.251059 16.9942 0.25 16V15C0.25 14.8011 0.329018 14.6103 0.46967 14.4697C0.610322 14.329 0.801088 14.25 1 14.25H20C20.1989 14.25 20.3897 14.329 20.5303 14.4697C20.671 14.6103 20.75 14.8011 20.75 15C20.75 15.1989 20.671 15.3897 20.5303 15.5303C20.3897 15.671 20.1989 15.75 20 15.75H1.75V16C1.75053 16.5966 1.98775 17.1686 2.40959 17.5904C2.83144 18.0122 3.40343 18.2495 4 18.25H20C20.5965 18.2492 21.1683 18.0119 21.5901 17.5901C22.0119 17.1683 22.2492 16.5965 22.25 16V15C22.25 14.8011 22.329 14.6103 22.4697 14.4697C22.6103 14.329 22.8011 14.25 23 14.25C23.1989 14.25 23.3897 14.329 23.5303 14.4697C23.671 14.6103 23.75 14.8011 23.75 15V16C23.7487 16.9942 23.3532 17.9472 22.6502 18.6502C21.9472 19.3532 20.9942 19.7487 20 19.75Z" fill="#112BB1"></path>
                    <path d="M20 19.75H4C3.00576 19.7489 2.05255 19.3535 1.34952 18.6505C0.646487 17.9474 0.251059 16.9942 0.25 16V4C0.251059 3.00576 0.646487 2.05255 1.34952 1.34952C2.05255 0.646487 3.00576 0.251059 4 0.25H20C20.9942 0.251323 21.9472 0.646836 22.6502 1.34981C23.3532 2.05279 23.7487 3.00584 23.75 4V16C23.7487 16.9942 23.3532 17.9472 22.6502 18.6502C21.9472 19.3532 20.9942 19.7487 20 19.75ZM4 1.75C3.40343 1.75053 2.83144 1.98775 2.40959 2.40959C1.98775 2.83144 1.75053 3.40343 1.75 4V16C1.75053 16.5966 1.98775 17.1686 2.40959 17.5904C2.83144 18.0122 3.40343 18.2495 4 18.25H20C20.5965 18.2492 21.1683 18.0119 21.5901 17.5901C22.0119 17.1683 22.2492 16.5965 22.25 16V4C22.2492 3.40351 22.0119 2.83167 21.5901 2.40989C21.1683 1.9881 20.5965 1.75079 20 1.75H4Z" fill="#112BB1"></path>
                    <path d="M17 23.75H7C6.80109 23.75 6.61032 23.671 6.46967 23.5303C6.32902 23.3897 6.25 23.1989 6.25 23C6.25 22.8011 6.32902 22.6103 6.46967 22.4697C6.61032 22.329 6.80109 22.25 7 22.25H17C17.1989 22.25 17.3897 22.329 17.5303 22.4697C17.671 22.6103 17.75 22.8011 17.75 23C17.75 23.1989 17.671 23.3897 17.5303 23.5303C17.3897 23.671 17.1989 23.75 17 23.75Z" fill="#112BB1"></path>
                    <path d="M14.9999 23.75H8.99989C8.88594 23.7499 8.77351 23.7238 8.67112 23.6738C8.56873 23.6238 8.47906 23.5511 8.40891 23.4613C8.33876 23.3715 8.28997 23.2669 8.26623 23.1554C8.24249 23.044 8.24443 22.9286 8.27189 22.818L9.27189 18.818C9.31265 18.6558 9.40641 18.5118 9.53829 18.4089C9.67017 18.306 9.83262 18.2501 9.99989 18.25H13.9999C14.1672 18.2499 14.3298 18.3058 14.4617 18.4087C14.5936 18.5116 14.6873 18.6557 14.7279 18.818L15.7279 22.818C15.7554 22.9286 15.7573 23.044 15.7336 23.1554C15.7098 23.2669 15.661 23.3715 15.5909 23.4613C15.5207 23.5511 15.4311 23.6238 15.3287 23.6738C15.2263 23.7238 15.1138 23.7499 14.9999 23.75V23.75ZM9.95989 22.25H14.0389L13.4139 19.75H10.5849L9.95989 22.25Z" fill="#112BB1"></path>
                  </svg>