<svg width="24" height="24" viewBox="0 0 24 24" fill="none" xmlns="http://www.w3.org/2000/svg">
                    <path d="M12 9.75C11.8011 9.75 11.6103 9.67098 11.4697 9.53033C11.329 9.38968 11.25 9.19891 11.25 9V7.579C11.2493 6.96182 11.4431 6.36011 11.8039 5.85941C12.1648 5.35871 12.6743 4.98451 13.26 4.79C13.548 4.69493 13.7987 4.51145 13.9765 4.26567C14.1542 4.01988 14.2499 3.72431 14.25 3.421V3C14.25 2.80109 14.329 2.61032 14.4697 2.46967C14.6103 2.32902 14.8011 2.25 15 2.25C15.1989 2.25 15.3897 2.32902 15.5303 2.46967C15.671 2.61032 15.75 2.80109 15.75 3V3.421C15.7508 4.03818 15.5569 4.63989 15.1961 5.14059C14.8352 5.64129 14.3257 6.01549 13.74 6.21C13.452 6.30508 13.2013 6.48855 13.0235 6.73433C12.8458 6.98012 12.7501 7.27569 12.75 7.579V9C12.75 9.19891 12.671 9.38968 12.5303 9.53033C12.3897 9.67098 12.1989 9.75 12 9.75Z" fill="#112BB1"></path>
                    <path d="M17.4905 21.75C16.3642 21.7488 15.2593 21.4429 14.2928 20.8648C13.3263 20.2866 12.5342 19.4578 12.0005 18.466C11.4165 19.5508 10.5248 20.4387 9.43736 21.0179C8.34997 21.5971 7.11556 21.8417 5.88947 21.721C4.3198 21.527 2.87676 20.7611 1.8364 19.5698C0.796036 18.3785 0.231387 16.8455 0.250468 15.264V14C0.252321 12.4756 0.858718 11.0141 1.93665 9.93618C3.01458 8.85825 4.47604 8.25185 6.00047 8.25H12.0005C12.1994 8.25 12.3901 8.32902 12.5308 8.46967C12.6715 8.61032 12.7505 8.80109 12.7505 9C12.7505 9.19891 12.6715 9.38968 12.5308 9.53033C12.3901 9.67098 12.1994 9.75 12.0005 9.75H6.00047C4.8737 9.75132 3.79347 10.1995 2.99673 10.9963C2.19998 11.793 1.75179 12.8732 1.75047 14V15.264C1.72878 16.4731 2.15338 17.6477 2.94312 18.5634C3.73286 19.4792 4.83236 20.0718 6.03147 20.228C6.6916 20.2932 7.35806 20.2195 7.98797 20.0115C8.61788 19.8036 9.19729 19.4661 9.68889 19.0208C10.1805 18.5754 10.5734 18.032 10.8424 17.4257C11.1113 16.8193 11.2503 16.1633 11.2505 15.5C11.2505 15.3011 11.3295 15.1103 11.4701 14.9697C11.6108 14.829 11.8016 14.75 12.0005 14.75C12.1994 14.75 12.3901 14.829 12.5308 14.9697C12.6715 15.1103 12.7505 15.3011 12.7505 15.5C12.7506 16.1633 12.8896 16.8193 13.1586 17.4257C13.4275 18.032 13.8204 18.5754 14.312 19.0208C14.8037 19.4661 15.3831 19.8036 16.013 20.0115C16.6429 20.2195 17.3093 20.2932 17.9695 20.228C19.1686 20.0718 20.2681 19.4792 21.0578 18.5634C21.8476 17.6477 22.2722 16.4731 22.2505 15.264V14C22.2491 12.8732 21.801 11.793 21.0042 10.9963C20.2075 10.1995 19.1272 9.75132 18.0005 9.75H15.0005C14.8016 9.75 14.6108 9.67098 14.4701 9.53033C14.3295 9.38968 14.2505 9.19891 14.2505 9C14.2505 8.80109 14.3295 8.61032 14.4701 8.46967C14.6108 8.32902 14.8016 8.25 15.0005 8.25H18.0005C19.5249 8.25185 20.9864 8.85825 22.0643 9.93618C23.1422 11.0141 23.7486 12.4756 23.7505 14V15.264C23.7696 16.8455 23.2049 18.3785 22.1645 19.5698C21.1242 20.7611 19.6811 21.527 18.1115 21.721C17.9005 21.741 17.7005 21.75 17.4905 21.75Z" fill="#112BB1"></path>
                    <path d="M8.5 15.25H4.5C4.30109 15.25 4.11032 15.171 3.96967 15.0303C3.82902 14.8897 3.75 14.6989 3.75 14.5C3.75 14.3011 3.82902 14.1103 3.96967 13.9697C4.11032 13.829 4.30109 13.75 4.5 13.75H8.5C8.69891 13.75 8.88968 13.829 9.03033 13.9697C9.17098 14.1103 9.25 14.3011 9.25 14.5C9.25 14.6989 9.17098 14.8897 9.03033 15.0303C8.88968 15.171 8.69891 15.25 8.5 15.25Z" fill="#112BB1"></path>
                    <path d="M6.5 17.25C6.30109 17.25 6.11032 17.171 5.96967 17.0303C5.82902 16.8897 5.75 16.6989 5.75 16.5V12.5C5.75 12.3011 5.82902 12.1103 5.96967 11.9697C6.11032 11.829 6.30109 11.75 6.5 11.75C6.69891 11.75 6.88968 11.829 7.03033 11.9697C7.17098 12.1103 7.25 12.3011 7.25 12.5V16.5C7.25 16.6989 7.17098 16.8897 7.03033 17.0303C6.88968 17.171 6.69891 17.25 6.5 17.25Z" fill="#112BB1"></path>
                    <path d="M19 14.25C19.6904 14.25 20.25 13.6904 20.25 13C20.25 12.3096 19.6904 11.75 19 11.75C18.3096 11.75 17.75 12.3096 17.75 13C17.75 13.6904 18.3096 14.25 19 14.25Z" fill="#112BB1"></path>
                    <path d="M16.5 17.75C17.1904 17.75 17.75 17.1904 17.75 16.5C17.75 15.8096 17.1904 15.25 16.5 15.25C15.8096 15.25 15.25 15.8096 15.25 16.5C15.25 17.1904 15.8096 17.75 16.5 17.75Z" fill="#112BB1"></path>
                  </svg>