<svg width="24" height="22" viewBox="0 0 24 22" fill="none" xmlns="http://www.w3.org/2000/svg">
                    <path d="M8 18.75C7.27179 18.7463 6.57445 18.4554 6.05952 17.9405C5.54459 17.4256 5.25368 16.7282 5.25 16V9.97001C5.25 9.7711 5.32902 9.58033 5.46967 9.43968C5.61032 9.29903 5.80109 9.22001 6 9.22001C6.19891 9.22001 6.38968 9.29903 6.53033 9.43968C6.67098 9.58033 6.75 9.7711 6.75 9.97001V16C6.74875 16.1625 6.78026 16.3235 6.84262 16.4735C6.90499 16.6235 6.99695 16.7593 7.113 16.873C7.22753 16.9927 7.36524 17.0879 7.51773 17.1527C7.67022 17.2175 7.83431 17.2506 8 17.25C8.33136 17.2495 8.64899 17.1176 8.8833 16.8833C9.1176 16.649 9.24947 16.3314 9.25 16V5.14601C9.2399 5.09801 9.23487 5.04907 9.235 5.00001C9.23341 4.90234 9.25123 4.80533 9.28741 4.7146C9.3236 4.62387 9.37744 4.54123 9.44581 4.47146C9.51418 4.40169 9.59572 4.3462 9.68571 4.30818C9.77569 4.27017 9.87232 4.2504 9.97 4.25001C10.1721 4.24886 10.3666 4.32657 10.5123 4.46663C10.658 4.60669 10.7432 4.79805 10.75 5.00001V16C10.7495 16.7292 10.4596 17.4284 9.94396 17.944C9.42835 18.4596 8.72918 18.7495 8 18.75Z" fill="#112BB1"></path>
                    <path d="M16 18.7501C15.2718 18.7464 14.5745 18.4555 14.0595 17.9406C13.5446 17.4256 13.2537 16.7283 13.25 16.0001V5.00009C13.25 4.80118 13.329 4.61041 13.4697 4.46976C13.6103 4.32911 13.8011 4.25009 14 4.25009C14.1123 4.24837 14.2236 4.2718 14.3257 4.31867C14.4278 4.36554 14.5181 4.43465 14.59 4.52094C14.6619 4.60723 14.7136 4.70852 14.7413 4.81738C14.769 4.92625 14.7719 5.03992 14.75 5.15009V16.0001C14.7488 16.1625 14.7803 16.3236 14.8426 16.4735C14.905 16.6235 14.9969 16.7594 15.113 16.8731C15.2275 16.9928 15.3652 17.088 15.5177 17.1528C15.6702 17.2176 15.8343 17.2507 16 17.2501C16.3314 17.2496 16.649 17.1177 16.8833 16.8834C17.1176 16.6491 17.2495 16.3314 17.25 16.0001V12.0001C17.25 11.8012 17.329 11.6104 17.4697 11.4698C17.6103 11.3291 17.8011 11.2501 18 11.2501C18.1989 11.2501 18.3897 11.3291 18.5303 11.4698C18.671 11.6104 18.75 11.8012 18.75 12.0001V16.0001C18.7495 16.7293 18.4596 17.4284 17.944 17.944C17.4283 18.4597 16.7292 18.7496 16 18.7501Z" fill="#112BB1"></path>
                    <path d="M8 21.75C7.80109 21.75 7.61032 21.671 7.46967 21.5303C7.32902 21.3897 7.25 21.1989 7.25 21V18C7.25 17.8011 7.32902 17.6103 7.46967 17.4697C7.61032 17.329 7.80109 17.25 8 17.25C8.19891 17.25 8.38968 17.329 8.53033 17.4697C8.67098 17.6103 8.75 17.8011 8.75 18V21C8.75 21.1989 8.67098 21.3897 8.53033 21.5303C8.38968 21.671 8.19891 21.75 8 21.75Z" fill="#112BB1"></path>
                    <path d="M16 21.75C15.8011 21.75 15.6103 21.671 15.4697 21.5303C15.329 21.3897 15.25 21.1989 15.25 21V18C15.25 17.8011 15.329 17.6103 15.4697 17.4697C15.6103 17.329 15.8011 17.25 16 17.25C16.1989 17.25 16.3897 17.329 16.5303 17.4697C16.671 17.6103 16.75 17.8011 16.75 18V21C16.75 21.1989 16.671 21.3897 16.5303 21.5303C16.3897 21.671 16.1989 21.75 16 21.75Z" fill="#112BB1"></path>
                    <path d="M5.5 10.75C4.46165 10.75 3.44662 10.4421 2.58326 9.86522C1.7199 9.28834 1.04699 8.4684 0.649635 7.50909C0.252275 6.54978 0.148307 5.49418 0.35088 4.47578C0.553452 3.45738 1.05347 2.52192 1.78769 1.78769C2.52192 1.05347 3.45738 0.553452 4.47578 0.35088C5.49418 0.148307 6.54978 0.252275 7.50909 0.649635C8.4684 1.04699 9.28834 1.7199 9.86522 2.58326C10.4421 3.44662 10.75 4.46165 10.75 5.5C10.7484 6.8919 10.1948 8.22634 9.21056 9.21056C8.22634 10.1948 6.8919 10.7484 5.5 10.75ZM5.5 1.75C4.75832 1.75 4.0333 1.96994 3.41661 2.38199C2.79993 2.79405 2.31928 3.37972 2.03545 4.06494C1.75163 4.75016 1.67736 5.50416 1.82206 6.23159C1.96675 6.95902 2.3239 7.62721 2.84835 8.15165C3.3728 8.6761 4.04098 9.03325 4.76841 9.17795C5.49584 9.32264 6.24984 9.24838 6.93507 8.96455C7.62029 8.68072 8.20596 8.20008 8.61801 7.58339C9.03007 6.96671 9.25 6.24168 9.25 5.5C9.24894 4.50577 8.85352 3.55255 8.15048 2.84952C7.44745 2.14649 6.49424 1.75106 5.5 1.75Z" fill="#112BB1"></path>
                    <path d="M18.5 10.75C17.4617 10.75 16.4466 10.4421 15.5833 9.86522C14.7199 9.28834 14.047 8.4684 13.6496 7.50909C13.2523 6.54978 13.1483 5.49418 13.3509 4.47578C13.5535 3.45738 14.0535 2.52192 14.7877 1.78769C15.5219 1.05347 16.4574 0.553452 17.4758 0.35088C18.4942 0.148307 19.5498 0.252275 20.5091 0.649635C21.4684 1.04699 22.2883 1.7199 22.8652 2.58326C23.4421 3.44662 23.75 4.46165 23.75 5.5C23.7484 6.8919 23.1948 8.22634 22.2106 9.21056C21.2263 10.1948 19.8919 10.7484 18.5 10.75ZM18.5 1.75C17.7583 1.75 17.0333 1.96994 16.4166 2.38199C15.7999 2.79405 15.3193 3.37972 15.0355 4.06494C14.7516 4.75016 14.6774 5.50416 14.8221 6.23159C14.9668 6.95902 15.3239 7.62721 15.8484 8.15165C16.3728 8.6761 17.041 9.03325 17.7684 9.17795C18.4958 9.32264 19.2498 9.24838 19.9351 8.96455C20.6203 8.68072 21.206 8.20008 21.618 7.58339C22.0301 6.96671 22.25 6.24168 22.25 5.5C22.2489 4.50577 21.8535 3.55255 21.1505 2.84952C20.4475 2.14649 19.4942 1.75106 18.5 1.75Z" fill="#112BB1"></path>
                  </svg>