<svg width="18" height="24" viewBox="0 0 18 24" fill="none" xmlns="http://www.w3.org/2000/svg">
                    <path d="M11.4399 5.75H6.55992C6.07019 5.75295 5.58888 5.62265 5.16752 5.37304C4.74617 5.12343 4.40063 4.76392 4.16792 4.333C4.03336 4.12559 3.93843 3.89503 3.88792 3.653L3.27192 1.181C3.24443 1.07046 3.24248 0.955101 3.26622 0.843691C3.28997 0.732281 3.33877 0.627743 3.40894 0.538008C3.47911 0.448274 3.56879 0.375702 3.67119 0.325799C3.77359 0.275897 3.88601 0.249974 3.99992 0.25H13.9999C14.1988 0.25 14.3896 0.329018 14.5303 0.46967C14.6709 0.610322 14.7499 0.801088 14.7499 1C14.7499 1.19891 14.6709 1.38968 14.5303 1.53033C14.3896 1.67098 14.1988 1.75 13.9999 1.75H4.95892L5.34792 3.309C5.36667 3.39967 5.40265 3.4859 5.45392 3.563C5.55609 3.76908 5.71374 3.94257 5.90913 4.06394C6.10452 4.1853 6.32991 4.24974 6.55992 4.25H11.4399C11.6577 4.25286 11.8722 4.19639 12.0603 4.08664C12.2485 3.97689 12.4032 3.818 12.5079 3.627C12.6015 3.45143 12.7611 3.32024 12.9514 3.26229C13.1418 3.20434 13.3474 3.22438 13.5229 3.318C13.6985 3.41162 13.8297 3.57115 13.8876 3.7615C13.9456 3.95185 13.9255 4.15743 13.8319 4.333C13.5992 4.76392 13.2537 5.12343 12.8323 5.37304C12.411 5.62265 11.9297 5.75295 11.4399 5.75Z" fill="#112BB1"></path>
                    <path d="M14 23.75H4C3.00576 23.7489 2.05255 23.3535 1.34952 22.6505C0.646487 21.9474 0.251059 20.9942 0.25 20V4C0.251059 3.00576 0.646487 2.05255 1.34952 1.34952C2.05255 0.646487 3.00576 0.251059 4 0.25H14C14.9942 0.251059 15.9474 0.646487 16.6505 1.34952C17.3535 2.05255 17.7489 3.00576 17.75 4V20C17.7489 20.9942 17.3535 21.9474 16.6505 22.6505C15.9474 23.3535 14.9942 23.7489 14 23.75ZM4 1.75C3.40343 1.75053 2.83144 1.98775 2.40959 2.40959C1.98775 2.83144 1.75053 3.40343 1.75 4V20C1.75053 20.5966 1.98775 21.1686 2.40959 21.5904C2.83144 22.0122 3.40343 22.2495 4 22.25H14C14.5966 22.2495 15.1686 22.0122 15.5904 21.5904C16.0122 21.1686 16.2495 20.5966 16.25 20V4C16.2495 3.40343 16.0122 2.83144 15.5904 2.40959C15.1686 1.98775 14.5966 1.75053 14 1.75H4Z" fill="#112BB1"></path>
                  </svg>