<svg width="24" height="24" viewBox="0 0 24 24" fill="none" xmlns="http://www.w3.org/2000/svg">
                    <path d="M20 22.75H4C3.00584 22.7487 2.05279 22.3532 1.34981 21.6502C0.646836 20.9472 0.251323 19.9942 0.25 19V9C0.251323 8.00584 0.646836 7.05279 1.34981 6.34981C2.05279 5.64684 3.00584 5.25132 4 5.25H20C20.9942 5.25132 21.9472 5.64684 22.6502 6.34981C23.3532 7.05279 23.7487 8.00584 23.75 9V19C23.7487 19.9942 23.3532 20.9472 22.6502 21.6502C21.9472 22.3532 20.9942 22.7487 20 22.75ZM4 6.75C3.40351 6.75079 2.83167 6.9881 2.40989 7.40989C1.9881 7.83167 1.75079 8.40351 1.75 9V19C1.75079 19.5965 1.9881 20.1683 2.40989 20.5901C2.83167 21.0119 3.40351 21.2492 4 21.25H20C20.5965 21.2492 21.1683 21.0119 21.5901 20.5901C22.0119 20.1683 22.2492 19.5965 22.25 19V9C22.2492 8.40351 22.0119 7.83167 21.5901 7.40989C21.1683 6.9881 20.5965 6.75079 20 6.75H4Z" fill="#112BB1"></path>
                    <path d="M8.9999 19.25C7.77274 19.25 6.58434 18.8202 5.64115 18.0351C4.69796 17.2501 4.05958 16.1594 3.83691 14.9526C3.61425 13.7458 3.82136 12.4992 4.42228 11.4292C5.02319 10.3592 5.97994 9.53356 7.1263 9.09565C8.27267 8.65774 9.53622 8.63524 10.6975 9.03207C11.8587 9.42889 12.8442 10.22 13.4828 11.2679C14.1215 12.3158 14.3728 13.5543 14.1933 14.7682C14.0137 15.9822 13.4145 17.0949 12.4999 17.913C12.4266 17.9793 12.3409 18.0305 12.2478 18.0636C12.1546 18.0967 12.0558 18.1111 11.9571 18.1059C11.8584 18.1007 11.7617 18.076 11.6725 18.0332C11.5834 17.9905 11.5035 17.9306 11.4376 17.8569C11.3717 17.7832 11.321 17.6972 11.2885 17.6039C11.2559 17.5106 11.2421 17.4117 11.2479 17.313C11.2537 17.2143 11.279 17.1178 11.3222 17.0289C11.3654 16.94 11.4258 16.8605 11.4999 16.795C12.1532 16.2106 12.5812 15.4158 12.7094 14.5487C12.8377 13.6816 12.6582 12.797 12.202 12.0485C11.7458 11.3 11.0419 10.7349 10.2124 10.4515C9.38299 10.168 8.48045 10.1841 7.66162 10.4969C6.84278 10.8097 6.15939 11.3994 5.73017 12.1637C5.30094 12.928 5.153 13.8184 5.31205 14.6804C5.4711 15.5424 5.92708 16.3215 6.60079 16.8822C7.2745 17.443 8.12335 17.75 8.9999 17.75C9.19881 17.75 9.38958 17.829 9.53023 17.9697C9.67088 18.1103 9.7499 18.3011 9.7499 18.5C9.7499 18.6989 9.67088 18.8897 9.53023 19.0303C9.38958 19.171 9.19881 19.25 8.9999 19.25Z" fill="#112BB1"></path>
                    <path d="M18 12C18.5523 12 19 11.5523 19 11C19 10.4477 18.5523 10 18 10C17.4477 10 17 10.4477 17 11C17 11.5523 17.4477 12 18 12Z" fill="#112BB1"></path>
                    <path d="M18 15C18.5523 15 19 14.5523 19 14C19 13.4477 18.5523 13 18 13C17.4477 13 17 13.4477 17 14C17 14.5523 17.4477 15 18 15Z" fill="#112BB1"></path>
                    <path d="M18 18C18.5523 18 19 17.5523 19 17C19 16.4477 18.5523 16 18 16C17.4477 16 17 16.4477 17 17C17 17.5523 17.4477 18 18 18Z" fill="#112BB1"></path>
                    <path d="M4.00098 6.75001C3.81875 6.75024 3.64267 6.68413 3.50564 6.56401C3.3686 6.4439 3.27998 6.278 3.25634 6.09731C3.2327 5.91663 3.27565 5.73351 3.37717 5.58219C3.47868 5.43086 3.63182 5.32166 3.80798 5.27501L18.808 1.27501C19.0003 1.22382 19.205 1.25111 19.3772 1.35088C19.5493 1.45065 19.6748 1.61473 19.726 1.80701C19.7772 1.99929 19.7499 2.20403 19.6501 2.37619C19.5503 2.54835 19.3863 2.67382 19.194 2.72501L4.19398 6.72501C4.13098 6.7416 4.06612 6.75 4.00098 6.75001Z" fill="#112BB1"></path>
                  </svg>