<svg width="18" height="24" viewBox="0 0 18 24" fill="none" xmlns="http://www.w3.org/2000/svg">
                    <path d="M9.0007 20.25C7.78991 20.2492 6.59413 19.982 5.49822 19.4672C4.40232 18.9524 3.43316 18.2027 2.65953 17.2713C1.8859 16.3399 1.32677 15.2496 1.02182 14.0779C0.716863 12.9061 0.673565 11.6816 0.894996 10.4912C1.11643 9.30086 1.59716 8.17382 2.30307 7.1901C3.00898 6.20638 3.92277 5.39011 4.97958 4.7992C6.03639 4.20829 7.2103 3.85724 8.41802 3.77097C9.62573 3.6847 10.8376 3.86531 11.9677 4.3C12.0596 4.33539 12.1437 4.38854 12.2151 4.45642C12.2864 4.52429 12.3438 4.60556 12.3837 4.69559C12.4237 4.78562 12.4456 4.88264 12.448 4.98111C12.4505 5.07958 12.4336 5.17757 12.3982 5.2695C12.3628 5.36142 12.3097 5.44548 12.2418 5.51686C12.1739 5.58825 12.0926 5.64556 12.0026 5.68554C11.9126 5.72552 11.8156 5.74737 11.7171 5.74985C11.6186 5.75233 11.5206 5.73539 11.4287 5.7C9.85443 5.09142 8.10948 5.09357 6.53671 5.70604C4.96395 6.31851 3.67709 7.49701 2.929 9.00997C2.1809 10.5229 2.02566 12.261 2.49377 13.8826C2.96188 15.5041 4.0195 16.8921 5.45882 17.7736C6.89813 18.6551 8.61508 18.9665 10.2723 18.6465C11.9295 18.3266 13.4071 17.3985 14.4149 16.0445C15.4226 14.6906 15.8876 13.0087 15.7184 11.3294C15.5493 9.6501 14.7582 8.09476 13.5007 6.969C13.4266 6.90352 13.3662 6.82405 13.323 6.73515C13.2798 6.64625 13.2545 6.54968 13.2487 6.45099C13.2429 6.3523 13.2567 6.25344 13.2893 6.1601C13.3218 6.06675 13.3725 5.98077 13.4384 5.90708C13.5043 5.8334 13.5842 5.77347 13.6733 5.73075C13.7625 5.68803 13.8592 5.66335 13.9579 5.65814C14.0566 5.65292 14.1554 5.66728 14.2486 5.70038C14.3417 5.73348 14.4274 5.78467 14.5007 5.851C15.746 6.9649 16.6237 8.43066 17.0178 10.0543C17.4118 11.678 17.3036 13.383 16.7074 14.9438C16.1112 16.5046 15.0552 17.8476 13.679 18.7951C12.3029 19.7426 10.6715 20.25 9.0007 20.25Z" fill="#112BB1"></path>
                    <path d="M14.0688 7.24C13.9062 7.23981 13.748 7.18675 13.6181 7.0888C13.4882 6.99086 13.3937 6.85335 13.3488 6.697L12.1888 2.657C12.1151 2.39563 11.9579 2.16554 11.7413 2.00179C11.5246 1.83804 11.2604 1.74962 10.9888 1.75H7.00982C6.73911 1.74902 6.47547 1.83637 6.25891 1.99879C6.04234 2.16122 5.88467 2.38985 5.80982 2.65L4.65082 6.7C4.59592 6.89122 4.4673 7.0528 4.29327 7.1492C4.11923 7.24559 3.91404 7.2689 3.72282 7.214C3.53159 7.1591 3.37001 7.03049 3.27362 6.85645C3.17723 6.68242 3.15392 6.47722 3.20882 6.286L4.36882 2.246C4.53228 1.67147 4.87849 1.16585 5.35503 0.80569C5.83157 0.445534 6.41249 0.250457 7.00982 0.25H10.9898C11.5878 0.250487 12.1694 0.446041 12.6462 0.806985C13.123 1.16793 13.469 1.67456 13.6318 2.25L14.7908 6.284C14.8229 6.39575 14.8286 6.51343 14.8074 6.62775C14.7862 6.74206 14.7387 6.84989 14.6687 6.9427C14.5986 7.03552 14.508 7.11078 14.4039 7.16255C14.2998 7.21432 14.1851 7.24118 14.0688 7.241V7.24Z" fill="#112BB1"></path>
                    <path d="M10.9902 23.7495H7.01023C6.41221 23.749 5.83068 23.5534 5.35387 23.1925C4.87706 22.8315 4.53101 22.3249 4.36823 21.7495L3.20923 17.7165C3.15393 17.5253 3.17686 17.3199 3.27298 17.1456C3.36909 16.9713 3.53051 16.8423 3.72173 16.787C3.91295 16.7317 4.11831 16.7546 4.29262 16.8507C4.46694 16.9468 4.59593 17.1083 4.65123 17.2995L5.81123 21.3395C5.88496 21.6008 6.04212 21.8309 6.25877 21.9947C6.47542 22.1584 6.73966 22.2469 7.01123 22.2465H10.9912C11.2619 22.2475 11.5256 22.1601 11.7421 21.9977C11.9587 21.8353 12.1164 21.6066 12.1912 21.3465L13.3492 17.2995C13.3764 17.2048 13.422 17.1164 13.4833 17.0393C13.5447 16.9622 13.6206 16.898 13.7068 16.8503C13.793 16.8026 13.8877 16.7723 13.9856 16.7611C14.0834 16.75 14.1825 16.7583 14.2772 16.7855C14.3719 16.8127 14.4603 16.8582 14.5374 16.9196C14.6145 16.9809 14.6787 17.0568 14.7264 17.143C14.7742 17.2292 14.8044 17.3239 14.8156 17.4218C14.8267 17.5197 14.8184 17.6188 14.7912 17.7135L13.6312 21.7535C13.4678 22.328 13.1216 22.8336 12.645 23.1938C12.1685 23.5539 11.5876 23.749 10.9902 23.7495Z" fill="#112BB1"></path>
                    <path d="M10 13.75C9.90149 13.7502 9.80392 13.7309 9.71294 13.6932C9.62195 13.6554 9.53938 13.5999 9.47 13.53L8.47 12.53C8.4002 12.4605 8.34483 12.3779 8.30708 12.287C8.26932 12.196 8.24992 12.0985 8.25 12V9C8.25 8.80109 8.32902 8.61032 8.46967 8.46967C8.61032 8.32902 8.80109 8.25 9 8.25C9.19891 8.25 9.38968 8.32902 9.53033 8.46967C9.67098 8.61032 9.75 8.80109 9.75 9V11.689L10.53 12.47C10.6348 12.5749 10.7061 12.7085 10.735 12.8539C10.7638 12.9993 10.749 13.15 10.6923 13.2869C10.6356 13.4239 10.5395 13.541 10.4163 13.6234C10.2931 13.7058 10.1482 13.7499 10 13.75Z" fill="#112BB1"></path>
                  </svg>